<svg height="512" viewBox="0 0 50 60" width="512" xmlns="http://www.w3.org/2000/svg"><g id="Page-1" fill="none" fill-rule="evenodd"><g id="014---Gelato" fill="rgb(0,0,0)" fill-rule="nonzero" transform="translate(0 -1)"><path id="Shape" d="m0 33.5c0 .038.011.072.012.11h-.006l1.994 17.949c.064 5.298 8.826 9.441 20 9.441s19.936-4.143 20-9.441l1.994-17.949h-.006c0-.038.012-.071.012-.11 0-2.92-2.74-5.5-7.714-7.287-.034-.069-.072-.137-.106-.205 1.0889798-.8481621 1.7536449-2.1292858 1.82-3.508-.0024999-2.0715207-.3978171-4.1237769-1.165-6.048.063-.164.145-.318.2-.489.070205-.233154.2269051-.430639.438-.552l10.258-6.038c1.5660263-.9260068 2.4204001-2.70388081 2.165009-4.50518656-.255391-1.80130574-1.570296-3.27161708-3.332009-3.72581344-1.1523269-.30006415-2.3768297-.12611274-3.4.483l-10.271 6.034c-.1944282.12172511-.4274852.16598095-.653.124-1.0407727-.23622832-2.1237366-.21218535-3.153.07-5.1137597-2.65310894-11.2413144-2.44543804-16.1637117.54780946-4.92239726 2.99324754-7.92606273 8.33815614-7.9232883 14.09919054.06229816 1.3729607.719432 2.6507209 1.8 3.5-.117.228-.225.456-.329.685-4.171 1.763-6.471 4.171-6.471 6.815zm17.5 2.5c1.9329966 0 3.5-1.5670034 3.5-3.5v-2.03c-.0009796-.1242267.0488783-.243452.138-.33.0968923-.0935077.2274045-.1439821.362-.14 1 0 2.01-.04 3-.12.1294924-.0114756.2577777.0324975.353.121.095429.0888964.1494349.2135811.149.344v5.155c0 1.9329966 1.5670034 3.5 3.5 3.5s3.5-1.5670034 3.5-3.5v-6.824c-.0011865-.1896402.1138839-.3606586.29-.431.7761678-.2945566 1.5278415-.6499966 2.248-1.063.042.086.094.169.134.257 1.7141831 3.7103584 1.770896 7.9743637.156 11.729-4.1581784 1.2615497-8.484921 1.8793667-12.83 1.832-4.7619539.0806264-9.5009288-.6776096-14-2.24-1.38055118-3.515353-1.3299392-7.4314994.141-10.91.1-.224.2-.448.312-.673 1.6301166.8989647 3.3815315 1.5577662 5.2 1.956.2045071.0538948.346501.2395158.345.451v2.916c-.0000002.9286043.3690233 1.8191463 1.0258333 2.4755811.6568099.6564349 1.5475625 1.0249495 2.4761667 1.0244189zm23.724 4.433c-2.524 3.285-10.358 5.567-19.224 5.567s-16.7-2.282-19.224-5.567l-.27-2.433c1.3123879 1.0399392 2.77681809 1.8719865 4.342 2.467 4.8521663 1.7680068 9.9886106 2.6266798 15.152 2.533 4.6991327.0553453 9.3769789-.639732 13.857-2.059l.046-.014c2.0225935-.6361569 3.9157927-1.6272844 5.591-2.927zm-35.677-11.075c-.72998171 2.7144457-.72998171 5.5735543 0 8.288-2-1.107-3.243-2.381-3.482-3.625l-.005-.029-.06-.516c.017-1.427 1.29-2.876 3.547-4.118zm34.459 22.032c-.0040197.0365286-.0060227.0732509-.006.11 0 3.622-7.233 7.5-18 7.5s-18-3.878-18-7.5c.00002272-.0367491-.00198032-.0734714-.006-.11l-.88-7.919c3.853 2.776 10.924 4.529 18.886 4.529s15.034-1.755 18.887-4.533zm1.994-17.921-.061.531c-.289 1.486-1.99 2.994-4.643 4.213.9428144-3.0753628.9428144-6.3626372 0-9.438 2.959 1.351 4.68 3.039 4.704 4.694zm-10.2-23.736c.7222041.15777656 1.477416.03250444 2.11-.35l10.272-6.036c.8705468-.50785216 1.9609089-.44330378 2.7654566.16371233.8045476.60701612 1.1659217 1.63777554.9165434 2.61428767-.1635717.64074217-.5765619 1.1894755-1.147 1.524l-10.263 6.039c-.6486389.3791501-1.1282357.9914318-1.341 1.712-.3268055 1.0934245-1.0557234 2.0224375-2.04 2.6l-2.223 1.307c-.4187075-1.363767-.9931627-2.6747462-1.712-3.907-.7966592-1.3945102-1.7741218-2.677619-2.907-3.816l2.274-1.34c.9927957-.58480898 2.1717096-.76763903 3.295-.511zm-10.3-1.733c1.7846195.00247793 3.5536164.33261836 5.219.974l-2.119 1.249c-.177-.122-.354-.242-.531-.345-.3086578-.18661469-.693893-.1925525-1.0081556-.01553919-.3142626.17701329-.5088495.50954509-.5092315.87023129s.1935002.6936293.5073871.8713079c1.8147709 1.2255676 3.3056233 2.8725392 4.345 4.8 1.2319758 1.9530102 1.9133229 4.2026304 1.972 6.511-.0147306.2648214.0763477.5246472.2531967.7223131.1768491.1976658.4249807.3169781.6898033.3316869h.057c.5311345.0008334.9702571-.4136983 1-.944.0260106-.5537668.0012405-1.1087522-.074-1.658l2.781-1.638c.5071024-.3047157.9695053-.6782726 1.374-1.11.3569317 1.2628944.5396216 2.5686391.543 3.881 0 1.368-1.654 2.817-4.424 3.876-.9486391.3692309-1.5741113 1.2820393-1.576 2.3v6.824c0 .8284271-.6715729 1.5-1.5 1.5s-1.5-.6715729-1.5-1.5v-5.155c.0011569-.6884444-.2859895-1.3459251-.7917887-1.8129628s-1.1840413-.7009639-1.8702113-.6450372c-.935.075-1.89.113-2.853.113-.6550397-.0020148-1.2842301.2554139-1.75.716-.4714691.461653-.7365113 1.0941483-.735 1.754v2.03c0 .8284271-.6715729 1.4999999-1.5 1.4999999s-1.5-.6715728-1.5-1.4999999v-2.916c.0075747-1.1411371-.7737015-2.1363934-1.884-2.4-4.257-1.005-7.116-2.884-7.116-4.684.00936782-8.0042454 6.4957546-14.49063218 14.5-14.5z"/><path id="Shape" d="m9.967 22c.0431008.005622.0865351.0082949.13.008.5017908-.0008253.9252696-.3734011.99-.871.4349924-3.2322047 2.3367494-6.0829953 5.154-7.726.4522526-.287496.5974802-.8803968.3292932-1.3443602-.2681869-.4639635-.8544428-.6340415-1.3292932-.3856398-3.3532321 1.9571045-5.61591892 5.3518727-6.132 9.2-.07039442.545483.31293723 1.0454225.858 1.119z"/><circle id="Oval" cx="19" cy="11" r="1"/><path id="Shape" d="m18.124 54.807c-5.164-.534-8.533-2.083-9.85-3.247-.41421356-.3658886-1.04661135-.3267136-1.4125.0875s-.32671356 1.0466114.0875 1.4125c1.612 1.426 5.34 3.157 10.968 3.738.0332025.0037818.0665835.0057846.1.006.5328742.0000667.9721942-.4177315.9988712-.9499375.026677-.5322061-.3686613-.9918418-.8988712-1.0450625z"/></g></g></svg>