<svg id="Capa_1" enable-background="new 0 0 511.455 511.455" height="512" viewBox="0 0 511.455 511.455" width="512" xmlns="http://www.w3.org/2000/svg"><g><path d="m511.318 404.758c0-13.503-9.334-24.862-21.888-27.976 1.104-2.677 1.718-5.606 1.718-8.677s-.613-6-1.718-8.677c12.552-3.115 21.886-14.474 21.886-27.976 0-13.124-8.819-24.22-20.84-27.692-1.328-10.933-3.251-21.967-5.745-32.88-4.717-20.647-22.15-36.352-43.381-39.08-34.635-4.45-69.502-6.765-104.381-6.997 1.012-5.708 1.857-11.421 2.548-17.105 12.028-3.468 20.854-14.567 20.854-27.696 0-13.503-9.334-24.862-21.888-27.976 1.104-2.677 1.718-5.606 1.718-8.677 0-3.068-.612-5.995-1.715-8.67 5.043-1.241 9.669-3.833 13.434-7.598 5.447-5.447 8.447-12.686 8.447-20.384 0-13.127-8.819-24.225-20.839-27.697-1.328-10.932-3.251-21.965-5.744-32.877-4.717-20.647-22.15-36.352-43.381-39.08-73.09-9.392-147.208-9.391-220.296.001-21.228 2.728-38.66 18.43-43.38 39.074-2.493 10.906-4.416 21.937-5.745 32.871-4.638 1.33-8.891 3.816-12.398 7.324-5.447 5.447-8.447 12.686-8.447 20.384 0 13.5 9.335 24.857 21.89 27.971-1.106 2.678-1.719 5.609-1.719 8.681 0 3.071.613 6.001 1.718 8.678-12.552 3.115-21.884 14.473-21.884 27.975 0 13.123 8.818 24.218 20.837 27.691 1.328 10.933 3.252 21.969 5.747 32.886 4.729 20.649 22.164 36.352 43.384 39.074 34.595 4.448 69.655 6.787 104.37 7.022-1.009 5.7-1.863 11.405-2.552 17.085-12.021 3.472-20.84 14.568-20.84 27.692 0 13.502 9.333 24.861 21.886 27.976-1.104 2.677-1.718 5.606-1.718 8.677s.613 6.001 1.718 8.678c-12.552 3.115-21.884 14.474-21.884 27.975 0 13.124 8.819 24.22 20.841 27.692 1.327 10.919 3.25 21.955 5.745 32.888 4.717 20.643 22.153 36.344 43.386 39.068 36.547 4.7 73.347 7.05 110.154 7.049 36.404 0 72.815-2.3 108.968-6.898 4.109-.522 7.017-4.277 6.494-8.386s-4.273-7.016-8.387-6.494c-71.441 9.088-143.884 9.037-215.319-.149-15.023-1.928-27.351-12.992-30.673-27.53-2.155-9.445-3.867-18.968-5.11-28.411h288.029c-1.248 9.494-2.961 19.013-5.111 28.399-1.499 6.558-4.823 12.53-9.614 17.27-2.944 2.913-2.97 7.662-.056 10.606 2.913 2.945 7.662 2.969 10.606.057 6.819-6.747 11.552-15.25 13.686-24.586 2.488-10.86 4.413-21.895 5.747-32.881 12.021-3.472 20.842-14.569 20.842-27.694zm-325.063-36.653c0-4.316 3.512-7.828 7.827-7.828h274.238c4.315 0 7.827 3.511 7.827 7.828s-3.512 7.828-7.827 7.828h-274.238c-4.315 0-7.827-3.512-7.827-7.828zm283.853-93.884c2.154 9.43 3.866 18.951 5.11 28.406h-288.033c1.244-9.46 2.958-18.982 5.113-28.409 3.323-14.542 15.648-25.609 30.669-27.539 71.819-9.229 144.651-9.229 216.471-.001 15.021 1.93 27.347 12.998 30.67 27.543zm-434.8-130.872c0-4.316 3.512-7.828 7.827-7.828h274.238c4.315 0 7.827 3.511 7.827 7.828s-3.512 7.828-7.827 7.828h-274.238c-4.315-.001-7.827-3.512-7.827-7.828zm-20.171-36.652c0-3.691 1.439-7.163 4.054-9.777 2.613-2.614 6.085-4.053 9.776-4.053h52.17c4.143 0 7.5-3.358 7.5-7.5s-3.357-7.5-7.5-7.5h-44.893c1.244-9.458 2.951-18.979 5.106-28.406 3.324-14.542 15.649-25.609 30.669-27.539 71.819-9.229 144.652-9.23 216.472-.001 15.021 1.93 27.347 12.999 30.67 27.543 2.154 9.429 3.86 18.949 5.104 28.403h-213.208c-4.143 0-7.5 3.358-7.5 7.5s3.357 7.5 7.5 7.5h220.49c7.62 0 13.819 6.204 13.819 13.83 0 3.691-1.439 7.163-4.054 9.777-2.606 2.607-6.075 4.043-9.766 4.043h-302.579c-7.626 0-13.83-6.2-13.83-13.82zm.005 73.305c0-7.623 6.202-13.825 13.825-13.825h302.578c7.623 0 13.825 6.202 13.825 13.826 0 7.607-6.176 13.797-13.777 13.823h-302.674c-7.601-.027-13.777-6.217-13.777-13.824zm56.878 84.774c-15.015-1.927-27.341-12.996-30.672-27.541-2.154-9.431-3.867-18.953-5.111-28.407h288.038c-.701 5.323-1.556 10.671-2.55 16.004-33.641.369-67.263 2.676-100.67 6.969-21.229 2.728-38.661 18.43-43.38 39.073-.064.279-.122.56-.185.839-35.032-.119-70.508-2.442-105.47-6.937zm94.067 66.676c0-7.623 6.202-13.825 13.825-13.825h302.578c7.623 0 13.825 6.202 13.825 13.826 0 7.623-6.202 13.825-13.825 13.825h-302.578c-7.623 0-13.825-6.203-13.825-13.826zm316.406 87.132h-302.579c-7.623 0-13.825-6.202-13.825-13.825s6.202-13.825 13.825-13.825h302.578c7.623 0 13.825 6.202 13.825 13.825s-6.201 13.825-13.824 13.825z"/></g></svg>