{
  "accessors": [
    {
      "bufferView": 2,
      "componentType": 5126,
      "count": 65532,
      "max": [
        0.02685176394879818,
        -0.0013015069998800755,
        105.05381774902344
      ],
      "min": [
        -0.0088874008506536484,
        -0.034288488328456879,
        105.02890014648438
      ],
      "type": "VEC3"
    },
    {
      "bufferView": 2,
      "byteOffset": 786384,
      "componentType": 5126,
      "count": 65532,
      "max": [
        0.99979299306869507,
        0.99999630451202393,
        1
      ],
      "min": [
        -0.99989765882492065,
        -0.99933600425720215,
        -1
      ],
      "type": "VEC3"
    },
    {
      "bufferView": 3,
      "componentType": 5126,
      "count": 65532,
      "max": [
        0.9999772310256958,
        0.99997365474700928,
        0.99995386600494385,
        1
      ],
      "min": [
        -0.99972677230834961,
        -0.9999280571937561,
        -0.99696016311645508,
        -1
      ],
      "type": "VEC4"
    },
    {
      "bufferView": 3,
      "byteOffset": 1048512,
      "componentType": 5126,
      "count": 65532,
      "max": [
        0.91764706373214722,
        0.85882353782653809,
        0.80392158031463623,
        1
      ],
      "min": [
        0.20000000298023224,
        0,
        0,
        1
      ],
      "type": "VEC4"
    },
    {
      "bufferView": 1,
      "componentType": 5126,
      "count": 65532,
      "max": [
        1,
        0.9842216968536377
      ],
      "min": [
        0,
        0
      ],
      "type": "VEC2"
    },
    {
      "bufferView": 0,
      "componentType": 5125,
      "count": 354288,
      "max": [
        65531
      ],
      "min": [
        0
      ],
      "type": "SCALAR"
    },
    {
      "bufferView": 2,
      "byteOffset": 1572768,
      "componentType": 5126,
      "count": 65532,
      "max": [
        0.019856706261634827,
        -0.001472927164286375,
        105.06060028076172
      ],
      "min": [
        -0.0093548260629177094,
        -0.032717779278755188,
        105.02835845947266
      ],
      "type": "VEC3"
    },
    {
      "bufferView": 2,
      "byteOffset": 2359152,
      "componentType": 5126,
      "count": 65532,
      "max": [
        0.9978453516960144,
        0.99992597103118896,
        1
      ],
      "min": [
        -0.99999982118606567,
        -0.99784201383590698,
        -1
      ],
      "type": "VEC3"
    },
    {
      "bufferView": 3,
      "byteOffset": 2097024,
      "componentType": 5126,
      "count": 65532,
      "max": [
        0.9999772310256958,
        0.99869310855865479,
        0.99999850988388062,
        1
      ],
      "min": [
        -0.9993053674697876,
        -0.99999338388442993,
        -0.99998289346694946,
        -1
      ],
      "type": "VEC4"
    },
    {
      "bufferView": 3,
      "byteOffset": 3145536,
      "componentType": 5126,
      "count": 65532,
      "max": [
        0.94117647409439087,
        0.88627451658248901,
        0.83137255907058716,
        1
      ],
      "min": [
        0.24313725531101227,
        0.0039215688593685627,
        0.0039215688593685627,
        1
      ],
      "type": "VEC4"
    },
    {
      "bufferView": 1,
      "byteOffset": 524256,
      "componentType": 5126,
      "count": 65532,
      "max": [
        0.99974668025970459,
        0.98476266860961914
      ],
      "min": [
        0,
        0.0037909303791821003
      ],
      "type": "VEC2"
    },
    {
      "bufferView": 0,
      "byteOffset": 1417152,
      "componentType": 5125,
      "count": 330213,
      "max": [
        65531
      ],
      "min": [
        0
      ],
      "type": "SCALAR"
    },
    {
      "bufferView": 2,
      "byteOffset": 3145536,
      "componentType": 5126,
      "count": 65532,
      "max": [
        0.028151154518127441,
        -0.0046120150946080685,
        105.06052398681641
      ],
      "min": [
        -0.0093069076538085938,
        -0.036528054624795914,
        105.02838134765625
      ],
      "type": "VEC3"
    },
    {
      "bufferView": 2,
      "byteOffset": 3931920,
      "componentType": 5126,
      "count": 65532,
      "max": [
        0.99998658895492554,
        0.99950844049453735,
        1
      ],
      "min": [
        -0.99992358684539795,
        -0.99966508150100708,
        -1
      ],
      "type": "VEC3"
    },
    {
      "bufferView": 3,
      "byteOffset": 4194048,
      "componentType": 5126,
      "count": 65532,
      "max": [
        0.99997007846832275,
        0.99994570016860962,
        0.99967527389526367,
        1
      ],
      "min": [
        -0.99972677230834961,
        -0.99999433755874634,
        -0.99995541572570801,
        -1
      ],
      "type": "VEC4"
    },
    {
      "bufferView": 3,
      "byteOffset": 5242560,
      "componentType": 5126,
      "count": 65532,
      "max": [
        0.93725490570068359,
        0.90196079015731812,
        0.84313726425170898,
        1
      ],
      "min": [
        0.20000000298023224,
        0.0039215688593685627,
        0.0039215688593685627,
        1
      ],
      "type": "VEC4"
    },
    {
      "bufferView": 1,
      "byteOffset": 1048512,
      "componentType": 5126,
      "count": 65532,
      "max": [
        0.99968135356903076,
        0.99476611614227295
      ],
      "min": [
        0,
        0.004029400646686554
      ],
      "type": "VEC2"
    },
    {
      "bufferView": 0,
      "byteOffset": 2738004,
      "componentType": 5125,
      "count": 322053,
      "max": [
        65531
      ],
      "min": [
        0
      ],
      "type": "SCALAR"
    },
    {
      "bufferView": 2,
      "byteOffset": 4718304,
      "componentType": 5126,
      "count": 65532,
      "max": [
        0.028135960921645164,
        -0.012462016195058823,
        105.06046295166016
      ],
      "min": [
        -0.0052968841046094894,
        -0.038214925676584244,
        105.02911376953125
      ],
      "type": "VEC3"
    },
    {
      "bufferView": 2,
      "byteOffset": 5504688,
      "componentType": 5126,
      "count": 65532,
      "max": [
        0.99999707937240601,
        0.99984771013259888,
        0.9996720552444458
      ],
      "min": [
        -0.99973273277282715,
        -0.99999123811721802,
        -1
      ],
      "type": "VEC3"
    },
    {
      "bufferView": 3,
      "byteOffset": 6291072,
      "componentType": 5126,
      "count": 65532,
      "max": [
        0.99997043609619141,
        0.99999487400054932,
        0.99998408555984497,
        1
      ],
      "min": [
        -0.99995112419128418,
        -0.99999094009399414,
        -0.9999656081199646,
        -1
      ],
      "type": "VEC4"
    },
    {
      "bufferView": 3,
      "byteOffset": 7339584,
      "componentType": 5126,
      "count": 65532,
      "max": [
        0.93725490570068359,
        0.86666667461395264,
        0.80000001192092896,
        1
      ],
      "min": [
        0.32156863808631897,
        0.058823529630899429,
        0.0078431377187371254,
        1
      ],
      "type": "VEC4"
    },
    {
      "bufferView": 1,
      "byteOffset": 1572768,
      "componentType": 5126,
      "count": 65532,
      "max": [
        1,
        0.99654555320739746
      ],
      "min": [
        0.0036610038951039314,
        0.0063537643291056156
      ],
      "type": "VEC2"
    },
    {
      "bufferView": 0,
      "byteOffset": 4026216,
      "componentType": 5125,
      "count": 327240,
      "max": [
        65531
      ],
      "min": [
        0
      ],
      "type": "SCALAR"
    },
    {
      "bufferView": 2,
      "byteOffset": 6291072,
      "componentType": 5126,
      "count": 65532,
      "max": [
        0.028151154518127441,
        -0.018050653859972954,
        105.05985260009766
      ],
      "min": [
        -0.00048388168215751648,
        -0.038639266043901443,
        105.03128051757812
      ],
      "type": "VEC3"
    },
    {
      "bufferView": 2,
      "byteOffset": 7077456,
      "componentType": 5126,
      "count": 65532,
      "max": [
        0.99999994039535522,
        0.99984771013259888,
        1
      ],
      "min": [
        -0.99922794103622437,
        -0.99999308586120605,
        -1
      ],
      "type": "VEC3"
    },
    {
      "bufferView": 3,
      "byteOffset": 8388096,
      "componentType": 5126,
      "count": 65532,
      "max": [
        0.99998974800109863,
        0.99999064207077026,
        0.99999308586120605,
        1
      ],
      "min": [
        -0.99999827146530151,
        -0.99996119737625122,
        -0.99993008375167847,
        -1
      ],
      "type": "VEC4"
    },
    {
      "bufferView": 3,
      "byteOffset": 9436608,
      "componentType": 5126,
      "count": 65532,
      "max": [
        0.92941176891326904,
        0.90196079015731812,
        0.84313726425170898,
        1
      ],
      "min": [
        0.32156863808631897,
        0.08235294371843338,
        0,
        1
      ],
      "type": "VEC4"
    },
    {
      "bufferView": 1,
      "byteOffset": 2097024,
      "componentType": 5126,
      "count": 65532,
      "max": [
        0.9993586540222168,
        0.99862802028656006
      ],
      "min": [
        0.00050535763148218393,
        0.00080364110181108117
      ],
      "type": "VEC2"
    },
    {
      "bufferView": 0,
      "byteOffset": 5335176,
      "componentType": 5125,
      "count": 311409,
      "max": [
        65531
      ],
      "min": [
        0
      ],
      "type": "SCALAR"
    },
    {
      "bufferView": 2,
      "byteOffset": 7863840,
      "componentType": 5126,
      "count": 14109,
      "max": [
        0.02546226792037487,
        -0.028870385140180588,
        105.05522918701172
      ],
      "min": [
        0.009135199710726738,
        -0.038639266043901443,
        105.03726959228516
      ],
      "type": "VEC3"
    },
    {
      "bufferView": 2,
      "byteOffset": 8033148,
      "componentType": 5126,
      "count": 14109,
      "max": [
        0.99989759922027588,
        0.99693644046783447,
        1
      ],
      "min": [
        -0.99833643436431885,
        -0.99989771842956543,
        -0.9964415431022644
      ],
      "type": "VEC3"
    },
    {
      "bufferView": 3,
      "byteOffset": 10485120,
      "componentType": 5126,
      "count": 14109,
      "max": [
        0.99891579151153564,
        0.99579405784606934,
        0.99999046325683594,
        1
      ],
      "min": [
        -0.99999827146530151,
        -0.99929159879684448,
        -0.98872143030166626,
        -1
      ],
      "type": "VEC4"
    },
    {
      "bufferView": 3,
      "byteOffset": 10710864,
      "componentType": 5126,
      "count": 14109,
      "max": [
        0.92156863212585449,
        0.89803922176361084,
        0.84313726425170898,
        1
      ],
      "min": [
        0.364705890417099,
        0.090196080505847931,
        0.0039215688593685627,
        1
      ],
      "type": "VEC4"
    },
    {
      "bufferView": 1,
      "byteOffset": 2621280,
      "componentType": 5126,
      "count": 14109,
      "max": [
        0.87532919645309448,
        0.96710574626922607
      ],
      "min": [
        0.19989024102687836,
        0.031355075538158417
      ],
      "type": "VEC2"
    },
    {
      "bufferView": 0,
      "byteOffset": 6580812,
      "componentType": 5125,
      "count": 60645,
      "max": [
        14108
      ],
      "min": [
        0
      ],
      "type": "SCALAR"
    },
    {
      "bufferView": 2,
      "byteOffset": 8202456,
      "componentType": 5126,
      "count": 439,
      "max": [
        1,
        1,
        1.0000001192092896
      ],
      "min": [
        -1.0000002384185791,
        -1,
        -1.0000004768371582
      ],
      "type": "VEC3"
    },
    {
      "bufferView": 2,
      "byteOffset": 8207724,
      "componentType": 5126,
      "count": 439,
      "max": [
        1,
        1,
        1
      ],
      "min": [
        -1,
        -1,
        -1
      ],
      "type": "VEC3"
    },
    {
      "bufferView": 3,
      "byteOffset": 10936608,
      "componentType": 5126,
      "count": 439,
      "max": [
        1,
        0.078690595924854279,
        1,
        1
      ],
      "min": [
        -1,
        -0.078690633177757263,
        -1,
        1
      ],
      "type": "VEC4"
    },
    {
      "bufferView": 1,
      "byteOffset": 2734152,
      "componentType": 5126,
      "count": 439,
      "max": [
        1.0000001192092896,
        1
      ],
      "min": [
        0,
        0
      ],
      "type": "VEC2"
    },
    {
      "bufferView": 0,
      "byteOffset": 6823392,
      "componentType": 5125,
      "count": 2280,
      "max": [
        438
      ],
      "min": [
        0
      ],
      "type": "SCALAR"
    }
  ],
  "asset": {
    "extras": {
      "author": "HYEM_WORKS (https://sketchfab.com/HYEM_WORKS)",
      "license": "CC-BY-4.0 (http://creativecommons.org/licenses/by/4.0/)",
      "source": "https://sketchfab.com/3d-models/hyemworks-macaron-2e249da1e3d246689fb837030ee792e1",
      "title": "Hyemworks Macaron"
    },
    "generator": "Sketchfab-6.43.0",
    "version": "2.0"
  },
  "bufferViews": [
    {
      "buffer": 0,
      "byteLength": 6832512,
      "byteOffset": 0,
      "name": "floatBufferViews",
      "target": 34963
    },
    {
      "buffer": 0,
      "byteLength": 2737664,
      "byteOffset": 6832512,
      "byteStride": 8,
      "name": "floatBufferViews",
      "target": 34962
    },
    {
      "buffer": 0,
      "byteLength": 8212992,
      "byteOffset": 9570176,
      "byteStride": 12,
      "name": "floatBufferViews",
      "target": 34962
    },
    {
      "buffer": 0,
      "byteLength": 10943632,
      "byteOffset": 17783168,
      "byteStride": 16,
      "name": "floatBufferViews",
      "target": 34962
    }
  ],
  "buffers": [
    {
      "byteLength": 28726800,
      "uri": "scene.bin"
    }
  ],
  "images": [
    {
      "uri": "textures/material0_baseColor.jpeg"
    }
  ],
  "materials": [
    {
      "doubleSided": true,
      "emissiveFactor": [
        0,
        0,
        0
      ],
      "name": "material0",
      "pbrMetallicRoughness": {
        "baseColorFactor": [
          1,
          1,
          1,
          1
        ],
        "baseColorTexture": {
          "index": 0,
          "texCoord": 0
        },
        "metallicFactor": 0,
        "roughnessFactor": 0.59999999999999998
      }
    },
    {
      "doubleSided": true,
      "emissiveFactor": [
        0,
        0,
        0
      ],
      "name": "lambert2",
      "pbrMetallicRoughness": {
        "baseColorFactor": [
          0.36932560000000003,
          0.16814560000000001,
          0.1273464,
          1
        ],
        "metallicFactor": 0,
        "roughnessFactor": 0.59999999999999998
      }
    }
  ],
  "meshes": [
    {
      "name": "Model_material0_0",
      "primitives": [
        {
          "attributes": {
            "COLOR_0": 3,
            "NORMAL": 1,
            "POSITION": 0,
            "TANGENT": 2,
            "TEXCOORD_0": 4
          },
          "indices": 5,
          "material": 0,
          "mode": 4
        }
      ]
    },
    {
      "name": "Model_material0_0",
      "primitives": [
        {
          "attributes": {
            "COLOR_0": 9,
            "NORMAL": 7,
            "POSITION": 6,
            "TANGENT": 8,
            "TEXCOORD_0": 10
          },
          "indices": 11,
          "material": 0,
          "mode": 4
        }
      ]
    },
    {
      "name": "Model_material0_0",
      "primitives": [
        {
          "attributes": {
            "COLOR_0": 15,
            "NORMAL": 13,
            "POSITION": 12,
            "TANGENT": 14,
            "TEXCOORD_0": 16
          },
          "indices": 17,
          "material": 0,
          "mode": 4
        }
      ]
    },
    {
      "name": "Model_material0_0",
      "primitives": [
        {
          "attributes": {
            "COLOR_0": 21,
            "NORMAL": 19,
            "POSITION": 18,
            "TANGENT": 20,
            "TEXCOORD_0": 22
          },
          "indices": 23,
          "material": 0,
          "mode": 4
        }
      ]
    },
    {
      "name": "Model_material0_0",
      "primitives": [
        {
          "attributes": {
            "COLOR_0": 27,
            "NORMAL": 25,
            "POSITION": 24,
            "TANGENT": 26,
            "TEXCOORD_0": 28
          },
          "indices": 29,
          "material": 0,
          "mode": 4
        }
      ]
    },
    {
      "name": "Model_material0_0",
      "primitives": [
        {
          "attributes": {
            "COLOR_0": 33,
            "NORMAL": 31,
            "POSITION": 30,
            "TANGENT": 32,
            "TEXCOORD_0": 34
          },
          "indices": 35,
          "material": 0,
          "mode": 4
        }
      ]
    },
    {
      "name": "pSphere1_lambert2_0",
      "primitives": [
        {
          "attributes": {
            "NORMAL": 37,
            "POSITION": 36,
            "TANGENT": 38,
            "TEXCOORD_0": 39
          },
          "indices": 40,
          "material": 1,
          "mode": 4
        }
      ]
    }
  ],
  "nodes": [
    {
      "children": [
        1
      ],
      "name": "RootNode (gltf orientation matrix)",
      "rotation": [
        -0.70710678118654746,
        -0,
        -0,
        0.70710678118654757
      ]
    },
    {
      "children": [
        2
      ],
      "matrix": [
        1,
        0,
        0,
        0,
        0,
        1,
        0,
        0,
        0,
        0,
        1,
        0,
        0,
        0,
        0.10342008620500565,
        1
      ],
      "name": "RootNode (model correction matrix)"
    },
    {
      "children": [
        3
      ],
      "matrix": [
        1,
        0,
        0,
        0,
        0,
        0,
        1,
        0,
        0,
        -1,
        0,
        0,
        0,
        0,
        0,
        1
      ],
      "name": "Hyemworks_macaron.fbx"
    },
    {
      "children": [
        4,
        11
      ],
      "name": "RootNode"
    },
    {
      "children": [
        5,
        6,
        7,
        8,
        9,
        10
      ],
      "matrix": [
        100,
        0,
        0,
        0,
        0,
        2.2204460492503131e-14,
        -100,
        0,
        0,
        100,
        2.2204460492503131e-14,
        0,
        0,
        -10500,
        0,
        1
      ],
      "name": "Model"
    },
    {
      "mesh": 0,
      "name": "Model_material0_0"
    },
    {
      "mesh": 1,
      "name": "Model_material0_0"
    },
    {
      "mesh": 2,
      "name": "Model_material0_0"
    },
    {
      "mesh": 3,
      "name": "Model_material0_0"
    },
    {
      "mesh": 4,
      "name": "Model_material0_0"
    },
    {
      "mesh": 5,
      "name": "Model_material0_0"
    },
    {
      "children": [
        12
      ],
      "matrix": [
        1.0462962057611529,
        -0.4520364512127284,
        0.22606219442740758,
        0,
        0.05901079831222425,
        0.10899639565707757,
        -0.055172562209282607,
        0,
        0.0022115692877535246,
        0.52382001158345215,
        1.0372003295364471,
        0,
        0.60369712114334106,
        3.6779999732971191,
        2.324620246887207,
        1
      ],
      "name": "pSphere1"
    },
    {
      "mesh": 6,
      "name": "pSphere1_lambert2_0"
    }
  ],
  "samplers": [
    {
      "magFilter": 9729,
      "minFilter": 9987,
      "wrapS": 10497,
      "wrapT": 10497
    }
  ],
  "scene": 0,
  "scenes": [
    {
      "name": "OSG_Scene",
      "nodes": [
        0
      ]
    }
  ],
  "textures": [
    {
      "sampler": 0,
      "source": 0
    }
  ]
}

